G04 Layer: BottomLayer*
G04 EasyEDA v6.3.22, 2020-03-31T08:42:04+02:00*
G04 b3c3d6b0667040ab911614f37c22b570,3b99274aeb534a2f9f455a051d55cec3,10*
G04 Gerber Generator version 0.2*
G04 Scale: 100 percent, Rotated: No, Reflected: No *
G04 Dimensions in millimeters *
G04 leading zeros omitted , absolute positions ,3 integer and 3 decimal *
%FSLAX33Y33*%
%MOMM*%
G90*
G71D02*

%ADD11C,0.259994*%
%ADD12C,1.574800*%
%ADD13R,1.574800X1.574800*%
%ADD14R,1.295400X1.295400*%
%ADD15C,1.295400*%
%ADD16R,1.699997X1.699997*%
%ADD17C,1.699997*%
%ADD18C,1.799996*%
%ADD19R,1.799996X1.799996*%
%ADD20R,1.778000X1.778000*%
%ADD21C,1.778000*%
%ADD22R,1.599997X1.599997*%
%ADD23C,1.599997*%
%ADD24C,1.879600*%

%LPD*%
G54D11*
G01X57619Y45240D02*
G01X60510Y48130D01*
G01X60510Y60942D01*
G01X62103Y62535D01*
G01X13649Y4998D02*
G01X13649Y52618D01*
G01X9999Y56268D01*
G01X19999Y73810D02*
G01X18729Y75080D01*
G01X18729Y80000D01*
G01X9999Y66190D02*
G01X9999Y64920D01*
G01X42379Y32540D01*
G01X19999Y66190D02*
G01X19999Y57460D01*
G01X42379Y35080D01*
G01X21269Y80000D02*
G01X28752Y72517D01*
G01X28752Y53787D01*
G01X42379Y40160D01*
G01X42379Y17300D02*
G01X38651Y17300D01*
G01X26349Y4998D01*
G01X42379Y37620D02*
G01X44023Y39263D01*
G01X44023Y57246D01*
G01X35001Y66268D01*
G01X76189Y4998D02*
G01X76189Y21590D01*
G01X57619Y40160D01*
G01X57619Y40160D02*
G01X62103Y44643D01*
G01X62103Y59995D01*
G01X16189Y4998D02*
G01X16189Y52618D01*
G01X9999Y58808D01*
G01X81269Y4998D02*
G01X85001Y8730D01*
G01X85001Y46190D01*
G01X57619Y32540D02*
G01X56034Y34125D01*
G01X56034Y59006D01*
G01X62103Y65075D01*
G01X78729Y48730D02*
G01X85001Y48730D01*
G01X78729Y48730D02*
G01X78729Y50988D01*
G01X62103Y67615D01*
G01X78729Y4998D02*
G01X78729Y30000D01*
G01X78729Y30000D02*
G01X78729Y48730D01*
G54D12*
G01X62103Y70155D03*
G01X62103Y67615D03*
G01X62103Y65075D03*
G01X62103Y62535D03*
G54D13*
G01X62103Y59995D03*
G54D14*
G01X34999Y68810D03*
G54D15*
G01X35000Y66270D03*
G01X35000Y63730D03*
G01X35000Y61190D03*
G54D16*
G01X9999Y51190D03*
G54D17*
G01X9999Y53730D03*
G01X9999Y56270D03*
G01X9999Y58810D03*
G54D16*
G01X85000Y46190D03*
G54D17*
G01X85000Y48730D03*
G01X85000Y51270D03*
G01X85000Y53810D03*
G54D18*
G01X26349Y4999D03*
G01X23809Y4999D03*
G01X21269Y4999D03*
G01X18729Y4999D03*
G01X16189Y4999D03*
G54D19*
G01X13649Y4999D03*
G54D20*
G01X42379Y47779D03*
G54D21*
G01X42379Y45239D03*
G01X42379Y42699D03*
G01X42379Y40159D03*
G01X42379Y37619D03*
G01X42379Y35079D03*
G01X42379Y32539D03*
G01X42379Y29999D03*
G01X42379Y27459D03*
G01X42379Y24919D03*
G01X42379Y22379D03*
G01X42379Y19839D03*
G01X42379Y17299D03*
G01X42379Y14759D03*
G01X42379Y12219D03*
G01X57619Y47779D03*
G01X57619Y45239D03*
G01X57619Y42699D03*
G01X57619Y40159D03*
G01X57619Y37619D03*
G01X57619Y35079D03*
G01X57619Y32539D03*
G01X57619Y29999D03*
G01X57619Y27459D03*
G01X57619Y24919D03*
G01X57619Y22379D03*
G01X57619Y19839D03*
G01X57619Y17299D03*
G01X57619Y14759D03*
G01X57619Y12219D03*
G54D22*
G01X18729Y80000D03*
G54D23*
G01X21269Y80000D03*
G54D22*
G01X8729Y80000D03*
G54D23*
G01X11269Y80000D03*
G54D18*
G01X86350Y4999D03*
G01X83810Y4999D03*
G01X81270Y4999D03*
G01X78730Y4999D03*
G01X76190Y4999D03*
G54D19*
G01X73650Y4999D03*
G54D24*
G01X19999Y73810D03*
G01X19999Y66190D03*
G01X9999Y73810D03*
G01X9999Y66190D03*
M00*
M02*
