G04 Layer: BottomSolderMaskLayer*
G04 EasyEDA v6.3.22, 2020-03-31T08:42:04+02:00*
G04 b3c3d6b0667040ab911614f37c22b570,3b99274aeb534a2f9f455a051d55cec3,10*
G04 Gerber Generator version 0.2*
G04 Scale: 100 percent, Rotated: No, Reflected: No *
G04 Dimensions in millimeters *
G04 leading zeros omitted , absolute positions ,3 integer and 3 decimal *
%FSLAX33Y33*%
%MOMM*%
G90*
G71D02*

%ADD20R,1.778000X1.778000*%
%ADD21C,1.778000*%
%ADD30C,1.498600*%
%ADD32C,1.903197*%
%ADD33C,2.003196*%
%ADD36C,1.981200*%
%ADD38C,1.803197*%
%ADD39C,2.082800*%

%LPD*%
G54D21*
G01X62103Y70155D03*
G01X62103Y67615D03*
G01X62103Y65075D03*
G01X62103Y62535D03*
G54D20*
G01X62103Y59995D03*
G36*
G01X34251Y68059D02*
G01X34251Y69558D01*
G01X35750Y69558D01*
G01X35750Y68059D01*
G01X34251Y68059D01*
G37*
G54D30*
G01X35000Y66270D03*
G01X35000Y63730D03*
G01X35000Y61190D03*
G36*
G01X9047Y50238D02*
G01X9047Y52141D01*
G01X10952Y52141D01*
G01X10952Y50238D01*
G01X9047Y50238D01*
G37*
G54D32*
G01X9999Y53730D03*
G01X9999Y56270D03*
G01X9999Y58810D03*
G36*
G01X84048Y45237D02*
G01X84048Y47142D01*
G01X85951Y47142D01*
G01X85951Y45237D01*
G01X84048Y45237D01*
G37*
G01X85000Y48730D03*
G01X85000Y51270D03*
G01X85000Y53810D03*
G54D33*
G01X26349Y4999D03*
G01X23809Y4999D03*
G01X21269Y4999D03*
G01X18729Y4999D03*
G01X16189Y4999D03*
G36*
G01X12649Y3998D02*
G01X12649Y6002D01*
G01X14650Y6002D01*
G01X14650Y3998D01*
G01X12649Y3998D01*
G37*
G36*
G01X41389Y46789D02*
G01X41389Y48770D01*
G01X43370Y48770D01*
G01X43370Y46789D01*
G01X41389Y46789D01*
G37*
G54D36*
G01X42379Y45239D03*
G01X42379Y42699D03*
G01X42379Y40159D03*
G01X42379Y37619D03*
G01X42379Y35079D03*
G01X42379Y32539D03*
G01X42379Y29999D03*
G01X42379Y27459D03*
G01X42379Y24919D03*
G01X42379Y22379D03*
G01X42379Y19839D03*
G01X42379Y17299D03*
G01X42379Y14759D03*
G01X42379Y12219D03*
G01X57619Y47779D03*
G01X57619Y45239D03*
G01X57619Y42699D03*
G01X57619Y40159D03*
G01X57619Y37619D03*
G01X57619Y35079D03*
G01X57619Y32539D03*
G01X57619Y29999D03*
G01X57619Y27459D03*
G01X57619Y24919D03*
G01X57619Y22379D03*
G01X57619Y19839D03*
G01X57619Y17299D03*
G01X57619Y14759D03*
G01X57619Y12219D03*
G36*
G01X17828Y79098D02*
G01X17828Y80901D01*
G01X19631Y80901D01*
G01X19631Y79098D01*
G01X17828Y79098D01*
G37*
G54D38*
G01X21269Y80000D03*
G36*
G01X7828Y79098D02*
G01X7828Y80901D01*
G01X9631Y80901D01*
G01X9631Y79098D01*
G01X7828Y79098D01*
G37*
G01X11269Y80000D03*
G54D33*
G01X86350Y4999D03*
G01X83810Y4999D03*
G01X81270Y4999D03*
G01X78730Y4999D03*
G01X76190Y4999D03*
G36*
G01X72649Y3998D02*
G01X72649Y6002D01*
G01X74650Y6002D01*
G01X74650Y3998D01*
G01X72649Y3998D01*
G37*
G54D39*
G01X19999Y73810D03*
G01X19999Y66190D03*
G01X9999Y73810D03*
G01X9999Y66190D03*
M00*
M02*
