;Layer: Drill PTH
;EasyEDA v6.3.22, 2020-03-31T08:42:04+02:00
;b3c3d6b0667040ab911614f37c22b570,3b99274aeb534a2f9f455a051d55cec3,10
;Gerber Generator version 0.2
M48
METRIC,LZ,000.000
;Holesize 1 = 0.712 METRIC
T01C0.712
;Holesize 2 = 0.900 METRIC
T02C0.900
;Holesize 3 = 0.915 METRIC
T03C0.915
;Holesize 4 = 1.000 METRIC
T04C1.000
;Holesize 5 = 1.021 METRIC
T05C1.021
;Holesize 6 = 1.101 METRIC
T06C1.101
;Holesize 7 = 1.200 METRIC
T07C1.200
%
G05
G90
T01
X+035000Y+068809
X+035000Y+066269
X+035000Y+063729
X+035000Y+061189
T02
X+020000Y+073810
X+020000Y+066190
X+010000Y+073810
X+010000Y+066190
T03
X+042380Y+047779
X+042380Y+045239
X+042380Y+042699
X+042380Y+040159
X+042380Y+037619
X+042380Y+035079
X+042380Y+032539
X+042380Y+029999
X+042380Y+027459
X+042380Y+024919
X+042380Y+022379
X+042380Y+019839
X+042380Y+017299
X+042380Y+014759
X+042380Y+012219
X+057620Y+047779
X+057620Y+045239
X+057620Y+042699
X+057620Y+040159
X+057620Y+037619
X+057620Y+035079
X+057620Y+032539
X+057620Y+029999
X+057620Y+027459
X+057620Y+024919
X+057620Y+022379
X+057620Y+019839
X+057620Y+017299
X+057620Y+014759
X+057620Y+012219
T04
X+018730Y+079999
X+021270Y+079999
X+008730Y+079999
X+011270Y+079999
T05
X+062103Y+070155
X+062103Y+067615
X+062103Y+065075
X+062103Y+062535
X+062103Y+059995
T06
X+010000Y+051189
X+010000Y+053729
X+010000Y+056269
X+010000Y+058809
X+085000Y+046190
X+085000Y+048730
X+085000Y+051270
X+085000Y+053810
T07
X+026350Y+005000
X+023810Y+005000
X+021270Y+005000
X+018730Y+005000
X+016190Y+005000
X+013650Y+005000
X+086349Y+005000
X+083809Y+005000
X+081269Y+005000
X+078729Y+005000
X+076189Y+005000
X+073649Y+005000
M30
